<svg xmlns="http://www.w3.org/2000/svg" xmlns:xlink="http://www.w3.org/1999/xlink" version="1.1" id="Ebene_1" x="0px" y="0px" width="100px" height="100px" viewBox="0 0 100 100" enable-background="new 0 0 100 100" xml:space="preserve">
<rect x="35.055" y="46.493" transform="matrix(0.7071 -0.7071 0.7071 0.7071 -20.6009 49.7903)" width="29.485" height="6.536"/>
<rect x="35.055" y="46.493" transform="matrix(0.7071 0.7071 -0.7071 0.7071 49.7722 -20.6378)" width="29.486" height="6.537"/>
<path fill="#000000" d="M49.799,4.762c-24.853,0-45,20.147-45,45.001c0,24.852,20.147,44.999,45,44.999  c24.853,0,45-20.147,45-44.999C94.799,24.909,74.651,4.762,49.799,4.762z M49.799,83.478c-18.621,0-33.716-15.094-33.716-33.715  c0-18.622,15.095-33.717,33.716-33.717c18.622,0,33.716,15.095,33.716,33.717C83.515,68.384,68.421,83.478,49.799,83.478z"/>
</svg>