<svg xmlns="http://www.w3.org/2000/svg" xmlns:xlink="http://www.w3.org/1999/xlink" version="1.1" id="Layer_1" x="0px" y="0px" viewBox="0 0 100 100" enable-background="new 0 0 100 100" xml:space="preserve" height="100px" width="100px">
<path d="M87.5,24.3L87.5,24.3C79.3,11.5,65.2,3.9,49.9,3.9c-8.7,0-17.2,2.5-24.6,7.3c-13.2,8.6-20.7,23-20.7,37.9  c0,5.8,1.1,11.8,3.5,17.4c0.3,0.7,1,1.2,1.8,1.2c0.3,0,0.5-0.1,0.8-0.2c0.7-0.3,1.2-1.1,1.2-1.8c0-0.2,0-0.5-0.1-0.7  c-2.2-5.2-3.2-10.6-3.2-15.9c0-13.6,6.8-26.8,18.9-34.7c6.7-4.3,14.4-6.7,22.4-6.7v0l0,0c0,0,0,0,0,0h0l0,0l0,0  c14,0,26.8,7,34.4,18.6c4.4,6.8,6.5,14.5,6.5,22.1h0l0,0v0v0v0v0l0,0v0c0,13.5-6.7,26.8-18.8,34.7c-6.7,4.3-14.4,6.7-22.3,6.7l0,0  h-0.2c0,0,0,0,0,0h0c-10.7,0-21-4.3-28.6-11.8l-1.5-1.5l2.7,0.3l11.8-2.8l36.6-36.5c5.2-4.6-7.4-13.7-9.8-14.6l0,0l0,0  c-1.2,0-2.4,0.5-3.3,1.4L20.8,60.9L17,76.5l0.2,0L17,76.7l0,0l-0.2,0.2l0,0c-0.4,0.4-0.6,0.8-0.6,1.4l0,0.1c0,0.5,0.2,0.9,0.5,1.3  C25,88.6,37,93.9,49.4,93.9v0h0c8.7,0,17.2-2.5,24.6-7.3c10.1-6.6,17-16.6,19.6-28.4c0.7-3.2,1-6.5,1-9.7  C94.7,39.9,92.2,31.6,87.5,24.3z M59.5,26.4l0.2-0.1l0.3-0.1l0.5-0.2l0.5,0.2l0.5,0.2l6.7,6.8l0.3,0.4l0.2,0.5v0.3v0.3l-0.1,0.2  l-0.2,0.5L62.6,41l-8.9-8.9L59.5,26.4z M25,60.9c5.2-5.2,20.8-20.9,26.1-26.2l0.9-0.9l8.9,8.9l-27,27L33,70.7l-4.5-4.5l-4.4-4.4  L25,60.9z M23.1,64.3l7.5,7.5l-7.9,1.9l-2,0.5L23.1,64.3z"/>
</svg>